<mxfile host="app.diagrams.net" agent="Mozilla/5.0 (X11; Ubuntu; Linux x86_64; rv:132.0) Gecko/20100101 Firefox/132.0" version="26.0.9">
  <diagram name="Pagina-1" id="Wb4IPrpFI_SJl9X2qQtV">
    <mxGraphModel dx="1913" dy="766" grid="1" gridSize="10" guides="1" tooltips="1" connect="1" arrows="1" fold="1" page="1" pageScale="1" pageWidth="827" pageHeight="1169" math="0" shadow="0">
      <root>
        <mxCell id="0" />
        <mxCell id="1" parent="0" />
        <mxCell id="F7OrzhjJnv1ih7gqQkXK-1" style="edgeStyle=orthogonalEdgeStyle;rounded=0;orthogonalLoop=1;jettySize=auto;html=1;entryX=0.5;entryY=0;entryDx=0;entryDy=0;" edge="1" parent="1" source="F7OrzhjJnv1ih7gqQkXK-2" target="F7OrzhjJnv1ih7gqQkXK-4">
          <mxGeometry relative="1" as="geometry" />
        </mxCell>
        <mxCell id="F7OrzhjJnv1ih7gqQkXK-2" value="START" style="ellipse;whiteSpace=wrap;html=1;" vertex="1" parent="1">
          <mxGeometry x="364" y="40" width="120" height="80" as="geometry" />
        </mxCell>
        <mxCell id="F7OrzhjJnv1ih7gqQkXK-3" style="edgeStyle=orthogonalEdgeStyle;rounded=0;orthogonalLoop=1;jettySize=auto;html=1;entryX=0.5;entryY=0;entryDx=0;entryDy=0;" edge="1" parent="1" source="F7OrzhjJnv1ih7gqQkXK-4" target="F7OrzhjJnv1ih7gqQkXK-9">
          <mxGeometry relative="1" as="geometry" />
        </mxCell>
        <mxCell id="F7OrzhjJnv1ih7gqQkXK-4" value="Read x" style="shape=parallelogram;perimeter=parallelogramPerimeter;whiteSpace=wrap;html=1;fixedSize=1;" vertex="1" parent="1">
          <mxGeometry x="364" y="160" width="120" height="60" as="geometry" />
        </mxCell>
        <mxCell id="F7OrzhjJnv1ih7gqQkXK-5" style="edgeStyle=orthogonalEdgeStyle;rounded=0;orthogonalLoop=1;jettySize=auto;html=1;" edge="1" parent="1" source="F7OrzhjJnv1ih7gqQkXK-9">
          <mxGeometry relative="1" as="geometry">
            <mxPoint x="570" y="300" as="targetPoint" />
          </mxGeometry>
        </mxCell>
        <mxCell id="F7OrzhjJnv1ih7gqQkXK-6" value="FALSE" style="edgeLabel;html=1;align=center;verticalAlign=middle;resizable=0;points=[];" vertex="1" connectable="0" parent="F7OrzhjJnv1ih7gqQkXK-5">
          <mxGeometry x="-0.1677" y="-2" relative="1" as="geometry">
            <mxPoint as="offset" />
          </mxGeometry>
        </mxCell>
        <mxCell id="F7OrzhjJnv1ih7gqQkXK-7" style="edgeStyle=orthogonalEdgeStyle;rounded=0;orthogonalLoop=1;jettySize=auto;html=1;" edge="1" parent="1" source="F7OrzhjJnv1ih7gqQkXK-9" target="F7OrzhjJnv1ih7gqQkXK-14">
          <mxGeometry relative="1" as="geometry" />
        </mxCell>
        <mxCell id="F7OrzhjJnv1ih7gqQkXK-8" value="TRUE" style="edgeLabel;html=1;align=center;verticalAlign=middle;resizable=0;points=[];" vertex="1" connectable="0" parent="F7OrzhjJnv1ih7gqQkXK-7">
          <mxGeometry x="-0.2663" relative="1" as="geometry">
            <mxPoint as="offset" />
          </mxGeometry>
        </mxCell>
        <mxCell id="F7OrzhjJnv1ih7gqQkXK-9" value="x &amp;gt; 0" style="rhombus;whiteSpace=wrap;html=1;" vertex="1" parent="1">
          <mxGeometry x="364" y="260" width="120" height="80" as="geometry" />
        </mxCell>
        <mxCell id="F7OrzhjJnv1ih7gqQkXK-10" style="edgeStyle=orthogonalEdgeStyle;rounded=0;orthogonalLoop=1;jettySize=auto;html=1;entryX=0.5;entryY=0;entryDx=0;entryDy=0;" edge="1" parent="1" source="F7OrzhjJnv1ih7gqQkXK-11" target="F7OrzhjJnv1ih7gqQkXK-12">
          <mxGeometry relative="1" as="geometry" />
        </mxCell>
        <mxCell id="F7OrzhjJnv1ih7gqQkXK-11" value="write &quot;error!&quot;" style="shape=parallelogram;perimeter=parallelogramPerimeter;whiteSpace=wrap;html=1;fixedSize=1;" vertex="1" parent="1">
          <mxGeometry x="560" y="270" width="120" height="60" as="geometry" />
        </mxCell>
        <mxCell id="F7OrzhjJnv1ih7gqQkXK-12" value="END" style="ellipse;whiteSpace=wrap;html=1;" vertex="1" parent="1">
          <mxGeometry x="730" y="580" width="120" height="80" as="geometry" />
        </mxCell>
        <mxCell id="F7OrzhjJnv1ih7gqQkXK-13" style="edgeStyle=orthogonalEdgeStyle;rounded=0;orthogonalLoop=1;jettySize=auto;html=1;entryX=0.5;entryY=0;entryDx=0;entryDy=0;" edge="1" parent="1" source="F7OrzhjJnv1ih7gqQkXK-14" target="F7OrzhjJnv1ih7gqQkXK-16">
          <mxGeometry relative="1" as="geometry" />
        </mxCell>
        <mxCell id="F7OrzhjJnv1ih7gqQkXK-14" value="i = 0" style="rounded=0;whiteSpace=wrap;html=1;" vertex="1" parent="1">
          <mxGeometry x="364" y="380" width="120" height="60" as="geometry" />
        </mxCell>
        <mxCell id="F7OrzhjJnv1ih7gqQkXK-15" style="edgeStyle=orthogonalEdgeStyle;rounded=0;orthogonalLoop=1;jettySize=auto;html=1;entryX=0.5;entryY=0;entryDx=0;entryDy=0;" edge="1" parent="1" source="F7OrzhjJnv1ih7gqQkXK-16" target="F7OrzhjJnv1ih7gqQkXK-21">
          <mxGeometry relative="1" as="geometry" />
        </mxCell>
        <mxCell id="F7OrzhjJnv1ih7gqQkXK-16" value="&lt;div&gt;sum = 0&lt;/div&gt;&lt;div&gt;sum_1 = 0&lt;br&gt;&lt;/div&gt;" style="rounded=0;whiteSpace=wrap;html=1;" vertex="1" parent="1">
          <mxGeometry x="364" y="480" width="120" height="60" as="geometry" />
        </mxCell>
        <mxCell id="F7OrzhjJnv1ih7gqQkXK-17" style="edgeStyle=orthogonalEdgeStyle;rounded=0;orthogonalLoop=1;jettySize=auto;html=1;entryX=0.5;entryY=0;entryDx=0;entryDy=0;" edge="1" parent="1" source="F7OrzhjJnv1ih7gqQkXK-21" target="F7OrzhjJnv1ih7gqQkXK-23">
          <mxGeometry relative="1" as="geometry" />
        </mxCell>
        <mxCell id="F7OrzhjJnv1ih7gqQkXK-18" value="TRUE" style="edgeLabel;html=1;align=center;verticalAlign=middle;resizable=0;points=[];" vertex="1" connectable="0" parent="F7OrzhjJnv1ih7gqQkXK-17">
          <mxGeometry x="-0.4833" relative="1" as="geometry">
            <mxPoint as="offset" />
          </mxGeometry>
        </mxCell>
        <mxCell id="F7OrzhjJnv1ih7gqQkXK-19" style="edgeStyle=orthogonalEdgeStyle;rounded=0;orthogonalLoop=1;jettySize=auto;html=1;" edge="1" parent="1" source="F7OrzhjJnv1ih7gqQkXK-21" target="F7OrzhjJnv1ih7gqQkXK-52">
          <mxGeometry relative="1" as="geometry" />
        </mxCell>
        <mxCell id="F7OrzhjJnv1ih7gqQkXK-20" value="FALSE" style="edgeLabel;html=1;align=center;verticalAlign=middle;resizable=0;points=[];" vertex="1" connectable="0" parent="F7OrzhjJnv1ih7gqQkXK-19">
          <mxGeometry x="-0.2215" y="-2" relative="1" as="geometry">
            <mxPoint x="3" y="-2" as="offset" />
          </mxGeometry>
        </mxCell>
        <mxCell id="F7OrzhjJnv1ih7gqQkXK-21" value="i &amp;lt; 10" style="rhombus;whiteSpace=wrap;html=1;" vertex="1" parent="1">
          <mxGeometry x="364" y="580" width="120" height="80" as="geometry" />
        </mxCell>
        <mxCell id="F7OrzhjJnv1ih7gqQkXK-22" style="edgeStyle=orthogonalEdgeStyle;rounded=0;orthogonalLoop=1;jettySize=auto;html=1;entryX=0.5;entryY=0;entryDx=0;entryDy=0;" edge="1" parent="1" source="F7OrzhjJnv1ih7gqQkXK-23" target="F7OrzhjJnv1ih7gqQkXK-30">
          <mxGeometry relative="1" as="geometry" />
        </mxCell>
        <mxCell id="F7OrzhjJnv1ih7gqQkXK-23" value="i++" style="rounded=0;whiteSpace=wrap;html=1;" vertex="1" parent="1">
          <mxGeometry x="364" y="700" width="120" height="60" as="geometry" />
        </mxCell>
        <mxCell id="F7OrzhjJnv1ih7gqQkXK-24" style="edgeStyle=orthogonalEdgeStyle;rounded=0;orthogonalLoop=1;jettySize=auto;html=1;" edge="1" parent="1" source="F7OrzhjJnv1ih7gqQkXK-28" target="F7OrzhjJnv1ih7gqQkXK-35">
          <mxGeometry relative="1" as="geometry">
            <mxPoint x="253" y="940" as="targetPoint" />
          </mxGeometry>
        </mxCell>
        <mxCell id="F7OrzhjJnv1ih7gqQkXK-25" value="TRUE" style="edgeLabel;html=1;align=center;verticalAlign=middle;resizable=0;points=[];" vertex="1" connectable="0" parent="F7OrzhjJnv1ih7gqQkXK-24">
          <mxGeometry x="-0.0044" y="4" relative="1" as="geometry">
            <mxPoint x="3" y="-4" as="offset" />
          </mxGeometry>
        </mxCell>
        <mxCell id="F7OrzhjJnv1ih7gqQkXK-26" style="edgeStyle=orthogonalEdgeStyle;rounded=0;orthogonalLoop=1;jettySize=auto;html=1;" edge="1" parent="1" source="F7OrzhjJnv1ih7gqQkXK-28" target="F7OrzhjJnv1ih7gqQkXK-44">
          <mxGeometry relative="1" as="geometry" />
        </mxCell>
        <mxCell id="F7OrzhjJnv1ih7gqQkXK-27" value="FALSE" style="edgeLabel;html=1;align=center;verticalAlign=middle;resizable=0;points=[];" vertex="1" connectable="0" parent="F7OrzhjJnv1ih7gqQkXK-26">
          <mxGeometry x="-0.1295" y="1" relative="1" as="geometry">
            <mxPoint as="offset" />
          </mxGeometry>
        </mxCell>
        <mxCell id="F7OrzhjJnv1ih7gqQkXK-28" value="x % 2 == 0" style="rhombus;whiteSpace=wrap;html=1;" vertex="1" parent="1">
          <mxGeometry x="364" y="900" width="120" height="80" as="geometry" />
        </mxCell>
        <mxCell id="F7OrzhjJnv1ih7gqQkXK-29" style="edgeStyle=orthogonalEdgeStyle;rounded=0;orthogonalLoop=1;jettySize=auto;html=1;entryX=0.5;entryY=0;entryDx=0;entryDy=0;" edge="1" parent="1" source="F7OrzhjJnv1ih7gqQkXK-30" target="F7OrzhjJnv1ih7gqQkXK-28">
          <mxGeometry relative="1" as="geometry" />
        </mxCell>
        <mxCell id="F7OrzhjJnv1ih7gqQkXK-30" value="Read n" style="shape=parallelogram;perimeter=parallelogramPerimeter;whiteSpace=wrap;html=1;fixedSize=1;" vertex="1" parent="1">
          <mxGeometry x="364" y="800" width="120" height="60" as="geometry" />
        </mxCell>
        <mxCell id="F7OrzhjJnv1ih7gqQkXK-31" style="edgeStyle=orthogonalEdgeStyle;rounded=0;orthogonalLoop=1;jettySize=auto;html=1;" edge="1" parent="1" source="F7OrzhjJnv1ih7gqQkXK-35">
          <mxGeometry relative="1" as="geometry">
            <mxPoint x="80" y="940" as="targetPoint" />
          </mxGeometry>
        </mxCell>
        <mxCell id="F7OrzhjJnv1ih7gqQkXK-32" value="TRUE" style="edgeLabel;html=1;align=center;verticalAlign=middle;resizable=0;points=[];" vertex="1" connectable="0" parent="F7OrzhjJnv1ih7gqQkXK-31">
          <mxGeometry x="-0.035" relative="1" as="geometry">
            <mxPoint x="1" as="offset" />
          </mxGeometry>
        </mxCell>
        <mxCell id="F7OrzhjJnv1ih7gqQkXK-33" style="edgeStyle=orthogonalEdgeStyle;rounded=0;orthogonalLoop=1;jettySize=auto;html=1;entryX=0.5;entryY=1;entryDx=0;entryDy=0;" edge="1" parent="1" source="F7OrzhjJnv1ih7gqQkXK-35" target="F7OrzhjJnv1ih7gqQkXK-39">
          <mxGeometry relative="1" as="geometry" />
        </mxCell>
        <mxCell id="F7OrzhjJnv1ih7gqQkXK-34" value="FALSE" style="edgeLabel;html=1;align=center;verticalAlign=middle;resizable=0;points=[];" vertex="1" connectable="0" parent="F7OrzhjJnv1ih7gqQkXK-33">
          <mxGeometry x="-0.7309" y="-2" relative="1" as="geometry">
            <mxPoint as="offset" />
          </mxGeometry>
        </mxCell>
        <mxCell id="F7OrzhjJnv1ih7gqQkXK-35" value="n &amp;gt; x/2" style="rhombus;whiteSpace=wrap;html=1;" vertex="1" parent="1">
          <mxGeometry x="160" y="900" width="120" height="80" as="geometry" />
        </mxCell>
        <mxCell id="F7OrzhjJnv1ih7gqQkXK-36" style="edgeStyle=orthogonalEdgeStyle;rounded=0;orthogonalLoop=1;jettySize=auto;html=1;entryX=0.5;entryY=1;entryDx=0;entryDy=0;" edge="1" parent="1" source="F7OrzhjJnv1ih7gqQkXK-37" target="F7OrzhjJnv1ih7gqQkXK-46">
          <mxGeometry relative="1" as="geometry" />
        </mxCell>
        <mxCell id="F7OrzhjJnv1ih7gqQkXK-37" value="sum += n" style="rounded=0;whiteSpace=wrap;html=1;" vertex="1" parent="1">
          <mxGeometry x="-40" y="910" width="120" height="60" as="geometry" />
        </mxCell>
        <mxCell id="F7OrzhjJnv1ih7gqQkXK-38" style="edgeStyle=orthogonalEdgeStyle;rounded=0;orthogonalLoop=1;jettySize=auto;html=1;entryX=0;entryY=0.5;entryDx=0;entryDy=0;" edge="1" parent="1" source="F7OrzhjJnv1ih7gqQkXK-39" target="F7OrzhjJnv1ih7gqQkXK-21">
          <mxGeometry relative="1" as="geometry" />
        </mxCell>
        <mxCell id="F7OrzhjJnv1ih7gqQkXK-39" value="" style="ellipse;whiteSpace=wrap;html=1;aspect=fixed;" vertex="1" parent="1">
          <mxGeometry x="210" y="610" width="20" height="20" as="geometry" />
        </mxCell>
        <mxCell id="F7OrzhjJnv1ih7gqQkXK-40" style="edgeStyle=orthogonalEdgeStyle;rounded=0;orthogonalLoop=1;jettySize=auto;html=1;entryX=1;entryY=0.5;entryDx=0;entryDy=0;" edge="1" parent="1" source="F7OrzhjJnv1ih7gqQkXK-44" target="F7OrzhjJnv1ih7gqQkXK-48">
          <mxGeometry relative="1" as="geometry" />
        </mxCell>
        <mxCell id="F7OrzhjJnv1ih7gqQkXK-41" value="TRUE" style="edgeLabel;html=1;align=center;verticalAlign=middle;resizable=0;points=[];" vertex="1" connectable="0" parent="F7OrzhjJnv1ih7gqQkXK-40">
          <mxGeometry x="-0.7461" y="-1" relative="1" as="geometry">
            <mxPoint as="offset" />
          </mxGeometry>
        </mxCell>
        <mxCell id="F7OrzhjJnv1ih7gqQkXK-42" style="edgeStyle=orthogonalEdgeStyle;rounded=0;orthogonalLoop=1;jettySize=auto;html=1;entryX=0.5;entryY=1;entryDx=0;entryDy=0;" edge="1" parent="1" source="F7OrzhjJnv1ih7gqQkXK-44" target="F7OrzhjJnv1ih7gqQkXK-50">
          <mxGeometry relative="1" as="geometry">
            <mxPoint x="-100" y="1200" as="targetPoint" />
            <Array as="points">
              <mxPoint x="424" y="1160" />
              <mxPoint x="425" y="1160" />
              <mxPoint x="425" y="1200" />
              <mxPoint x="-100" y="1200" />
            </Array>
          </mxGeometry>
        </mxCell>
        <mxCell id="F7OrzhjJnv1ih7gqQkXK-43" value="FALSE" style="edgeLabel;html=1;align=center;verticalAlign=middle;resizable=0;points=[];" vertex="1" connectable="0" parent="F7OrzhjJnv1ih7gqQkXK-42">
          <mxGeometry x="-0.9033" y="1" relative="1" as="geometry">
            <mxPoint as="offset" />
          </mxGeometry>
        </mxCell>
        <mxCell id="F7OrzhjJnv1ih7gqQkXK-44" value="n &amp;lt; x" style="rhombus;whiteSpace=wrap;html=1;" vertex="1" parent="1">
          <mxGeometry x="364" y="1030" width="120" height="80" as="geometry" />
        </mxCell>
        <mxCell id="F7OrzhjJnv1ih7gqQkXK-45" style="edgeStyle=orthogonalEdgeStyle;rounded=0;orthogonalLoop=1;jettySize=auto;html=1;entryX=0;entryY=0.5;entryDx=0;entryDy=0;" edge="1" parent="1" source="F7OrzhjJnv1ih7gqQkXK-46" target="F7OrzhjJnv1ih7gqQkXK-39">
          <mxGeometry relative="1" as="geometry" />
        </mxCell>
        <mxCell id="F7OrzhjJnv1ih7gqQkXK-46" value="" style="ellipse;whiteSpace=wrap;html=1;aspect=fixed;" vertex="1" parent="1">
          <mxGeometry x="10" y="610" width="20" height="20" as="geometry" />
        </mxCell>
        <mxCell id="F7OrzhjJnv1ih7gqQkXK-47" style="edgeStyle=orthogonalEdgeStyle;rounded=0;orthogonalLoop=1;jettySize=auto;html=1;entryX=1;entryY=0.5;entryDx=0;entryDy=0;" edge="1" parent="1" source="F7OrzhjJnv1ih7gqQkXK-48" target="F7OrzhjJnv1ih7gqQkXK-50">
          <mxGeometry relative="1" as="geometry" />
        </mxCell>
        <mxCell id="F7OrzhjJnv1ih7gqQkXK-48" value="sum_1 += n" style="rounded=0;whiteSpace=wrap;html=1;" vertex="1" parent="1">
          <mxGeometry x="-42" y="1040" width="120" height="60" as="geometry" />
        </mxCell>
        <mxCell id="F7OrzhjJnv1ih7gqQkXK-49" style="edgeStyle=orthogonalEdgeStyle;rounded=0;orthogonalLoop=1;jettySize=auto;html=1;entryX=0;entryY=0.5;entryDx=0;entryDy=0;" edge="1" parent="1" source="F7OrzhjJnv1ih7gqQkXK-50" target="F7OrzhjJnv1ih7gqQkXK-46">
          <mxGeometry relative="1" as="geometry">
            <mxPoint x="-100" y="620" as="targetPoint" />
            <Array as="points">
              <mxPoint x="-100" y="840" />
              <mxPoint x="-99" y="840" />
              <mxPoint x="-99" y="620" />
            </Array>
          </mxGeometry>
        </mxCell>
        <mxCell id="F7OrzhjJnv1ih7gqQkXK-50" value="" style="ellipse;whiteSpace=wrap;html=1;aspect=fixed;" vertex="1" parent="1">
          <mxGeometry x="-110" y="1060" width="20" height="20" as="geometry" />
        </mxCell>
        <mxCell id="F7OrzhjJnv1ih7gqQkXK-51" style="edgeStyle=orthogonalEdgeStyle;rounded=0;orthogonalLoop=1;jettySize=auto;html=1;entryX=0;entryY=0.5;entryDx=0;entryDy=0;" edge="1" parent="1" source="F7OrzhjJnv1ih7gqQkXK-52" target="F7OrzhjJnv1ih7gqQkXK-12">
          <mxGeometry relative="1" as="geometry" />
        </mxCell>
        <mxCell id="F7OrzhjJnv1ih7gqQkXK-52" value="&lt;div&gt;Write sum &lt;br&gt;&lt;/div&gt;&lt;div&gt;write sum_1&lt;br&gt;&lt;/div&gt;" style="shape=parallelogram;perimeter=parallelogramPerimeter;whiteSpace=wrap;html=1;fixedSize=1;" vertex="1" parent="1">
          <mxGeometry x="560" y="590" width="120" height="60" as="geometry" />
        </mxCell>
      </root>
    </mxGraphModel>
  </diagram>
</mxfile>
